HIERARCHY
ROOT Hips
{
    OFFSET   0.000000   0.000000   0.000000
    CHANNELS 6 Xposition Yposition Zposition Zrotation Xrotation Yrotation
    JOINT Chest
    {
        OFFSET   0.000000   8.007240   0.000000
        CHANNELS 3 Zrotation Xrotation Yrotation
        JOINT Chest2
        {
            OFFSET   0.000000  22.077100   0.000000
            CHANNELS 3 Zrotation Xrotation Yrotation
            JOINT Neck
            {
                OFFSET   0.000000  23.254800   0.000000
                CHANNELS 3 Zrotation Xrotation Yrotation
                JOINT Head
                {
                    OFFSET   0.000000  14.370000   1.956600
                    CHANNELS 3 Zrotation Xrotation Yrotation
                    End Site
                    {
                        OFFSET   0.000000  19.566000   0.000000
                    }
                }
            }
            JOINT LeftCollar
            {
                OFFSET   3.911900  19.017000  -0.467064
                CHANNELS 3 Zrotation Xrotation Yrotation
                JOINT LeftShoulder
                {
                    OFFSET  10.383700   0.000000   0.000000
                    CHANNELS 3 Zrotation Xrotation Yrotation
                    JOINT LeftElbow
                    {
                        OFFSET  26.662100   0.001476   0.000517
                        CHANNELS 3 Zrotation Xrotation Yrotation
                        JOINT LeftWrist
                        {
                            OFFSET  28.869000  -0.000025  -0.000106
                            CHANNELS 3 Zrotation Xrotation Yrotation
                            JOINT LeftFinger0
                            {
                                OFFSET   2.044660  -2.323460   3.252850
                                CHANNELS 3 Zrotation Xrotation Yrotation
                                JOINT LeftFinger01
                                {
                                    OFFSET   3.088130   0.000000   0.000000
                                    CHANNELS 3 Zrotation Xrotation Yrotation
                                    JOINT LeftFinger02
                                    {
                                        OFFSET   2.639460   0.000000   0.000000
                                        CHANNELS 3 Zrotation Xrotation Yrotation
                                        End Site
                                        {
                                            OFFSET   2.582190   0.000000   0.000000
                                        }
                                    }
                                }
                            }
                            JOINT LeftFinger1
                            {
                                OFFSET   8.364480   0.000000   3.252850
                                CHANNELS 3 Zrotation Xrotation Yrotation
                                JOINT LeftFinger11
                                {
                                    OFFSET   4.646930   0.000000   0.000000
                                    CHANNELS 3 Zrotation Xrotation Yrotation
                                    JOINT LeftFinger12
                                    {
                                        OFFSET   2.323460   0.000000   0.000000
                                        CHANNELS 3 Zrotation Xrotation Yrotation
                                        End Site
                                        {
                                            OFFSET   2.273050   0.000000   0.000000
                                        }
                                    }
                                }
                            }
                            JOINT LeftFinger2
                            {
                                OFFSET   8.364490   0.000015   1.078090
                                CHANNELS 3 Zrotation Xrotation Yrotation
                                JOINT LeftFinger21
                                {
                                    OFFSET   5.111620   0.000000   0.000000
                                    CHANNELS 3 Zrotation Xrotation Yrotation
                                    JOINT LeftFinger22
                                    {
                                        OFFSET   2.788160   0.000016   0.000000
                                        CHANNELS 3 Zrotation Xrotation Yrotation
                                        End Site
                                        {
                                            OFFSET   2.727660   0.000000   0.000000
                                        }
                                    }
                                }
                            }
                            JOINT LeftFinger3
                            {
                                OFFSET   7.899780   0.000017  -1.078090
                                CHANNELS 3 Zrotation Xrotation Yrotation
                                JOINT LeftFinger31
                                {
                                    OFFSET   4.646930   0.000000   0.000000
                                    CHANNELS 3 Zrotation Xrotation Yrotation
                                    JOINT LeftFinger32
                                    {
                                        OFFSET   2.323470   0.000000   0.000000
                                        CHANNELS 3 Zrotation Xrotation Yrotation
                                        End Site
                                        {
                                            OFFSET   2.273050   0.000000   0.000000
                                        }
                                    }
                                }
                            }
                            JOINT LeftFinger4
                            {
                                OFFSET   7.435090   0.000000  -3.252850
                                CHANNELS 3 Zrotation Xrotation Yrotation
                                JOINT LeftFinger41
                                {
                                    OFFSET   3.717550   0.000000   0.000000
                                    CHANNELS 3 Zrotation Xrotation Yrotation
                                    JOINT LeftFinger42
                                    {
                                        OFFSET   1.858770   0.000000   0.000000
                                        CHANNELS 3 Zrotation Xrotation Yrotation
                                        End Site
                                        {
                                            OFFSET   1.818440   0.000000   0.000000
                                        }
                                    }
                                }
                            }
                        }
                    }
                }
            }
            JOINT RightCollar
            {
                OFFSET  -3.911900  19.017000  -0.467063
                CHANNELS 3 Zrotation Xrotation Yrotation
                JOINT RightShoulder
                {
                    OFFSET -10.383700   0.000019   0.000000
                    CHANNELS 3 Zrotation Xrotation Yrotation
                    JOINT RightElbow
                    {
                        OFFSET -26.662100   0.001175   0.000102
                        CHANNELS 3 Zrotation Xrotation Yrotation
                        JOINT RightWrist
                        {
                            OFFSET -28.869000   0.000016  -0.000079
                            CHANNELS 3 Zrotation Xrotation Yrotation
                            JOINT RightFinger0
                            {
                                OFFSET  -2.044660  -2.323490   3.252850
                                CHANNELS 3 Zrotation Xrotation Yrotation
                                JOINT RightFinger01
                                {
                                    OFFSET  -3.088140   0.000000   0.000000
                                    CHANNELS 3 Zrotation Xrotation Yrotation
                                    JOINT RightFinger02
                                    {
                                        OFFSET  -2.639460   0.000000   0.000000
                                        CHANNELS 3 Zrotation Xrotation Yrotation
                                        End Site
                                        {
                                            OFFSET  -2.582190   0.000000   0.000000
                                        }
                                    }
                                }
                            }
                            JOINT RightFinger1
                            {
                                OFFSET  -8.364480   0.000000   3.252850
                                CHANNELS 3 Zrotation Xrotation Yrotation
                                JOINT RightFinger11
                                {
                                    OFFSET  -4.646930   0.000000   0.000000
                                    CHANNELS 3 Zrotation Xrotation Yrotation
                                    JOINT RightFinger12
                                    {
                                        OFFSET  -2.323470   0.000000   0.000000
                                        CHANNELS 3 Zrotation Xrotation Yrotation
                                        End Site
                                        {
                                            OFFSET  -2.273050   0.000000   0.000000
                                        }
                                    }
                                }
                            }
                            JOINT RightFinger2
                            {
                                OFFSET  -8.364480   0.000000   1.078090
                                CHANNELS 3 Zrotation Xrotation Yrotation
                                JOINT RightFinger21
                                {
                                    OFFSET  -5.111620   0.000000   0.000000
                                    CHANNELS 3 Zrotation Xrotation Yrotation
                                    JOINT RightFinger22
                                    {
                                        OFFSET  -2.788160   0.000000   0.000000
                                        CHANNELS 3 Zrotation Xrotation Yrotation
                                        End Site
                                        {
                                            OFFSET  -2.727660   0.000000   0.000000
                                        }
                                    }
                                }
                            }
                            JOINT RightFinger3
                            {
                                OFFSET  -7.899780   0.000000  -1.078090
                                CHANNELS 3 Zrotation Xrotation Yrotation
                                JOINT RightFinger31
                                {
                                    OFFSET  -4.646930   0.000000   0.000000
                                    CHANNELS 3 Zrotation Xrotation Yrotation
                                    JOINT RightFinger32
                                    {
                                        OFFSET  -2.323470   0.000000   0.000000
                                        CHANNELS 3 Zrotation Xrotation Yrotation
                                        End Site
                                        {
                                            OFFSET  -2.273050   0.000000   0.000000
                                        }
                                    }
                                }
                            }
                            JOINT RightFinger4
                            {
                                OFFSET  -7.435090   0.000000  -3.252850
                                CHANNELS 3 Zrotation Xrotation Yrotation
                                JOINT RightFinger41
                                {
                                    OFFSET  -3.717550   0.000000   0.000000
                                    CHANNELS 3 Zrotation Xrotation Yrotation
                                    JOINT RightFinger42
                                    {
                                        OFFSET  -1.858770   0.000000   0.000000
                                        CHANNELS 3 Zrotation Xrotation Yrotation
                                        End Site
                                        {
                                            OFFSET  -1.818440   0.000000   0.000000
                                        }
                                    }
                                }
                            }
                        }
                    }
                }
            }
        }
    }
    JOINT LeftHip
    {
        OFFSET   9.783040   0.000000   0.000000
        CHANNELS 3 Zrotation Xrotation Yrotation
        JOINT LeftKnee
        {
            OFFSET   0.000032 -41.789100  -0.002222
            CHANNELS 3 Zrotation Xrotation Yrotation
            JOINT LeftAnkle
            {
                OFFSET   0.000087 -41.133200  -0.000135
                CHANNELS 3 Zrotation Xrotation Yrotation
                JOINT LeftToe
                {
                    OFFSET   0.000000  -6.358960  14.674500
                    CHANNELS 3 Zrotation Xrotation Yrotation
                    End Site
                    {
                        OFFSET   0.000000   0.000000   3.913200
                    }
                }
            }
        }
    }
    JOINT RightHip
    {
        OFFSET  -9.783040   0.000000   0.000000
        CHANNELS 3 Zrotation Xrotation Yrotation
        JOINT RightKnee
        {
            OFFSET   0.000047 -41.789100  -0.000896
            CHANNELS 3 Zrotation Xrotation Yrotation
            JOINT RightAnkle
            {
                OFFSET  -0.000117 -41.133300  -0.000248
                CHANNELS 3 Zrotation Xrotation Yrotation
                JOINT RightToe
                {
                    OFFSET   0.000000  -6.358970  14.674500
                    CHANNELS 3 Zrotation Xrotation Yrotation
                    End Site
                    {
                        OFFSET   0.000000   0.000000   3.913200
                    }
                }
            }
        }
    }
}
MOTION
Frames: 6
Frame Time:   0.016667
 -0.805644  89.498700   1.238930  -1.840800  -5.853090  -2.622380   2.214610   5.715890  -0.932253   4.557000  11.390300  -2.102790   3.630360  -1.136260   0.071363   5.970620  -2.276410 -35.062500  -8.498950   1.181300  -1.256150 -64.628900  19.383400 -10.240400  -2.957410  -9.012110  -7.686470  -0.327307 -11.685900   0.624861  49.119300  40.957300 -83.065800 -21.360900  -0.020870  -0.006271  -5.680450  -0.017481  -0.020130 -30.761000   3.377000  -5.651890 -25.304500   0.000506  -0.001493 -17.713200   0.001067   0.000568 -27.894200  -1.116320   2.108050 -31.461700  -0.000691  -0.000075 -20.953600  -0.000422  -0.000231 -27.362600  -3.149890   6.061680 -29.350100   0.000575  -0.002395 -19.547200   0.002155   0.001978 -29.876400  -3.411610   5.917910 -45.077000  -0.007723   0.001477 -30.021300  -0.001139  -0.000633   8.129810  -0.035451  11.131600  61.026800 -16.443200  49.120000 -19.938100 -34.109000  84.781500  19.151400 -47.320200  40.726600 -20.682100  29.925700  58.629900  71.778400   0.000585  -0.006629  41.144500  -0.001584  -0.004040  88.995700   5.002310   0.092551  82.710700  -0.002895  -0.000557  62.033100  -0.000135   0.001744  88.999300  -0.007475  -0.007968  91.953400  -0.002554   0.004664  68.965000  -0.005559   0.000736  88.760500  -4.998700  -0.109326  88.765200  -0.003978   0.004321  66.573900   0.003322   0.000322  88.984300  -9.996670  -0.178036 110.000000  -0.006879   0.000000  79.999900  -0.000246   0.001815   3.099500   9.172180   4.031250   0.909121   0.127264  14.056800  -5.002080  -2.786830   2.868400  -0.000000   0.000000  -0.000000   0.110957   6.247430  -2.887870   1.125570   2.300570 -11.883700  -1.372700  -2.474750  -4.652410  -0.000000   0.000000  -0.000000
 -0.820584  89.502500   1.263960  -1.835490  -5.840600  -2.576960   2.182590   5.679270  -0.942651   4.492480  11.317400  -2.118850   3.714900  -1.071640   0.068867   6.108960  -2.145750 -34.992200  -8.468940   1.243240  -1.211550 -64.687900  19.368800 -10.207000  -2.968900  -9.048280  -7.624510  -0.450668 -11.569800   0.611713  49.166100  41.040400 -83.203300 -21.378700  -0.015890  -0.006135  -5.689360  -0.013959  -0.016563 -30.702700   3.391450  -5.688980 -25.258300   0.000503  -0.001461 -17.680800   0.001048   0.000608 -27.885400  -1.117730   2.111360 -31.409000  -0.000716  -0.000082 -20.918400  -0.000376  -0.000215 -27.347200  -3.158050   6.080270 -29.276200   0.000126  -0.002430 -19.498000   0.002173   0.001985 -29.811300  -3.416630   5.938050 -44.982800  -0.007763   0.001443 -29.958500  -0.001111  -0.000616   8.172210   0.079330  11.208200  60.620900 -16.272900  49.146900 -19.849500 -34.589700  86.761300  19.218400 -46.189800  40.308400 -20.790600  30.158500  58.785400  71.605400   0.000390  -0.006807  41.029300  -0.001618  -0.004206  88.995700   5.002300   0.092588  82.529700  -0.002750  -0.000511  61.897300  -0.000146   0.001705  88.999300  -0.007505  -0.007918  91.936200  -0.008279   0.004732  68.952100  -0.005692   0.003169  88.604600  -4.998730  -0.122040  88.609900  -0.003906   0.004378  66.457400   0.003379   0.000229  88.984300  -9.996700  -0.178076 110.000000  -0.006878   0.000000  79.999900  -0.000241   0.001777   3.111320   9.171330   4.040640   0.909674   0.122496  14.020400  -5.011970  -2.786990   2.850130   0.000000   0.000000   0.000000   0.127397   6.250660  -2.887010   1.124800   2.302170 -11.902400  -1.379580  -2.494400  -4.681100   0.000000   0.000000   0.000000
 -0.830555  89.505500   1.284880  -1.831010  -5.823180  -2.540480   2.150070   5.637170  -0.959717   4.427400  11.233300  -2.147080   3.794650  -1.008200   0.066997   6.239430  -2.017750 -34.919100  -8.438320   1.314330  -1.135410 -64.762800  19.365500 -10.178900  -2.963920  -9.068460  -7.543560  -0.572773 -11.453300   0.584895  49.207700  41.123200 -83.341300 -21.375500  -0.011788  -0.004858  -5.687780  -0.010830  -0.014063 -30.642900   3.426730  -5.761390 -25.212500   0.000501  -0.001429 -17.648700   0.001032   0.000650 -27.879200  -1.097670   2.073870 -31.367000  -0.000742  -0.000095 -20.890400  -0.000329  -0.000191 -27.335600  -3.147400   6.061040 -29.213200  -0.000291  -0.002464 -19.456000   0.002191   0.001990 -29.752400  -3.405920   5.932990 -44.893400  -0.007800   0.001408 -29.899000  -0.001081  -0.000597   8.232050   0.184013  11.305200  60.155000 -16.161000  49.180100 -19.854900 -34.954600  88.376600  18.895600 -45.585000  39.474500 -20.810000  29.979800  58.755100  71.405800  -0.000004  -0.006943  40.896300  -0.001654  -0.004398  88.995700   5.002290   0.092624  82.474200  -0.002606  -0.000465  61.855700   0.000347   0.001668  88.999200  -0.007535  -0.007866  91.408800  -0.008950   0.004800  68.556600  -0.005802   0.001293  88.515500  -4.998470  -0.129862  88.521100  -0.003834   0.004438  66.390800   0.003437   0.000112  88.984300  -9.996730  -0.178118 110.000000  -0.006880   0.000000  79.999900  -0.000238   0.001739   3.117440   9.171050   4.040790   0.915162   0.098316  13.998200  -5.020260  -2.781150   2.834940   0.000000   0.000000   0.000000   0.139687   6.249970  -2.889140   1.126990   2.301790 -11.921400  -1.387240  -2.512270  -4.700190  -0.000000   0.000000   0.000000
 -0.834705  89.508500   1.301860  -1.827650  -5.804730  -2.514650   2.118590   5.597500  -0.970706   4.363960  11.154100  -2.165320   3.865170  -0.955006   0.065588   6.354790  -1.910400 -34.829200  -8.411180   1.378880  -1.075460 -64.841000  19.364500 -10.145600  -2.955640  -9.076640  -7.464280  -0.697476 -11.341800   0.544520  49.236600  41.194200 -83.461800 -21.372400  -0.008536  -0.003264  -5.686210  -0.008243  -0.011365 -30.582900   3.464580  -5.838290 -25.166900   0.000501  -0.001398 -17.616800   0.001015   0.000693 -27.874200  -1.067960   2.018370 -31.329300  -0.000768  -0.000116 -20.865300  -0.000280  -0.000163 -27.324600  -3.133880   6.039890 -29.153700  -0.000655  -0.002500 -19.416300   0.002210   0.001994 -29.698300  -3.395220   5.927930 -44.811200  -0.007836   0.001373 -29.844300  -0.001050  -0.000577   8.299140   0.240422  11.379400  59.706000 -16.113400  49.196800 -19.828300 -35.146000  89.740600  18.582900 -45.155300  38.702200 -20.829700  29.801200  58.725800  71.292300  -0.000400  -0.007077  40.820600  -0.001688  -0.004607  88.995700   5.002280   0.092660  82.410200  -0.002462  -0.000417  61.807700   0.001184   0.001631  88.999200  -0.007566  -0.007811  90.706200  -0.009139   0.004869  68.029600  -0.005889  -0.000583  88.412400  -4.998050  -0.139085  88.418400  -0.003761   0.004498  66.313800   0.003496  -0.000000  88.984300  -9.996770  -0.178161 110.000000  -0.006882   0.000000  79.999900  -0.000235   0.001702   3.122900   9.170250   4.040810   0.919458   0.080796  13.989800  -5.029330  -2.775290   2.824160  -0.000000   0.000000   0.000000   0.150335   6.249280  -2.894130   1.130560   2.300160 -11.933000  -1.394170  -2.527990  -4.707930   0.000000   0.000000   0.000000
 -0.834100  89.512000   1.316080  -1.829460  -5.790950  -2.501700   2.091200   5.569150  -0.970292   4.308180  11.097900  -2.163330   3.918790  -0.921186   0.064579   6.444370  -1.841060 -34.724600  -8.390400   1.424730  -1.063200 -64.915000  19.361700 -10.097100  -2.955070  -9.077730  -7.409920  -0.825793 -11.261700   0.482332  49.212600  41.232000 -83.533500 -21.402900  -0.007452  -0.002820  -5.701450  -0.007319  -0.007521 -30.537300   3.490740  -5.888550 -25.132000   0.000503  -0.001366 -17.592400   0.000994   0.000734 -27.871300  -1.052220   1.988890 -31.308400  -0.000793  -0.000143 -20.851400  -0.000232  -0.000135 -27.316000  -3.130900   6.037660 -29.111300  -0.000944  -0.002539 -19.388100   0.002230   0.001997 -29.663200  -3.405460   5.950330 -44.760300  -0.007873   0.001339 -29.810400  -0.001018  -0.000556   8.358180   0.228993  11.400000  59.435000 -16.229000  49.198100 -19.643300 -35.033300  90.915700  18.526900 -44.750800  38.262900 -20.817000  29.927400  58.744500  71.419900  -0.000796  -0.007216  40.905600  -0.001715  -0.004829  88.995700   5.002270   0.092697  82.225400  -0.002318  -0.000368  61.669100   0.001886   0.001591  88.999200  -0.007597  -0.007752  90.514300  -0.009408   0.004939  67.885700  -0.005955  -0.000554  88.215000  -4.997710  -0.156017  88.221700  -0.003686   0.004559  66.166300   0.003556  -0.000072  88.984300  -9.996800  -0.178199 110.000000  -0.006881   0.000000  79.999900  -0.000233   0.001664   3.133720   9.161720   4.035320   0.920310   0.094522  13.990000  -5.041260  -2.790120   2.819620  -0.000000   0.000000  -0.000000   0.163484   6.250140  -2.902120   1.132490   2.297990 -11.935300  -1.398990  -2.541300  -4.707650   0.000000   0.000000   0.000000
 -0.832919  89.516500   1.322930  -1.835640  -5.778430  -2.498530   2.066450   5.548640  -0.967692   4.257240  11.057600  -2.152020   3.959150  -0.907842   0.064158   6.508940  -1.814930 -34.585900  -8.380790   1.445320  -1.061460 -64.974800  19.358100 -10.036700  -2.958070  -9.078460  -7.372650  -0.950881 -11.195500   0.414963  49.217000  41.256700 -83.579500 -21.433400  -0.007105  -0.002679  -5.716690  -0.006959  -0.004021 -30.491900   3.502880  -5.923620 -25.096200   0.000505  -0.001335 -17.567400   0.000975   0.000775 -27.866700  -1.040580   1.967280 -31.278500  -0.000816  -0.000179 -20.831500  -0.000174  -0.000100 -27.306100  -3.130060   6.037340 -29.063100  -0.001133  -0.002579 -19.356000   0.002251   0.001999 -29.623600  -3.417550   5.984810 -44.703400  -0.007909   0.001304 -29.772500  -0.000986  -0.000535   8.405940   0.198869  11.402900  59.294800 -16.434300  49.173000 -19.434800 -34.793700  91.839300  18.505900 -44.385300  37.931300 -20.815700  30.130100  58.792500  71.547500  -0.001192  -0.007355  40.990700  -0.001744  -0.005061  88.995700   5.002270   0.092734  81.981300  -0.002172  -0.000319  61.486000   0.002608   0.001551  88.999200  -0.007628  -0.007690  90.416200  -0.009574   0.005010  67.812100  -0.006000  -0.000472  87.985100  -4.997380  -0.175712  87.992700  -0.003611   0.004620  65.994500   0.003616  -0.000138  88.984300  -9.996830  -0.178236 110.000000  -0.006880   0.000000  79.999900  -0.000229   0.001627   3.148360   9.150740   4.027230   0.919728   0.113991  13.991800  -5.052710  -2.814100   2.819000  -0.000000   0.000000   0.000000   0.171698   6.256410  -2.909930   1.138740   2.288190 -11.935500  -1.403000  -2.551980  -4.705370   0.000000   0.000000   0.000000
